# xmcd
#
# Track frame offsets:
#	150
#	13972
#	27960
#	38992
#	63377
#	77627
#	91895
#	105047
#	117722
#	128322
#
# Disc length: 1843 seconds
#
# Revision: 0
# Processed by: cddbd v1.5.2PL0 Copyright (c) Steve Scherf et al.
# Submitted via: EasyCDDAExtractor 8.2.3.1
#
DISCID=7307310a
DTITLE=David Allan Coe - The Underground Album
DYEAR=1988
DGENRE=Country
TTITLE0=Rock And Roll Fever
TTITLE1=Panheads Forever
TTITLE2=Nigger Fucker
TTITLE3=Coffee
TTITLE4=One Monkey Don't Stop No Show
TTITLE5=One More Time
TTITLE6=Little Susie Shallow Throat
TTITLE7=Pick Em  Lick Em  Stick Em
TTITLE8=Don't Bite The Dick
TTITLE9=Fuckin' In The Butt
EXTD=
EXTT0=
EXTT1=
EXTT2=
EXTT3=
EXTT4=
EXTT5=
EXTT6=
EXTT7=
EXTT8=
EXTT9=
PLAYORDER=
